<?xml version="1.0" encoding="UTF-8" standalone="no"?>
<!-- Created with Inkscape (http://www.inkscape.org/) -->

<svg
   width="46"
   height="46"
   viewBox="0 0 12.170833 12.170833"
   version="1.1"
   id="svg1"
   xml:space="preserve"
   xmlns="http://www.w3.org/2000/svg"
   xmlns:svg="http://www.w3.org/2000/svg"><defs
     id="defs1" /><g
     id="layer3"
     style="display:inline"><rect
       style="fill:none;fill-opacity:0;stroke:none;stroke-width:0.264583;stroke-linecap:round"
       id="rect1"
       width="12.170834"
       height="12.170834"
       x="-2.9382323e-07"
       y="-2.9382323e-07" /></g><g
     id="layer1"
     style="fill:#ffffff;stroke:none"><path
       style="stroke-linecap:round;stroke-linejoin:round;stroke-miterlimit:1.3"
       d="M 1.1640625,8.6894531 A 0.41010401,0.41010401 0 0 0 0.75390625,9.0996094 v 2.0097656 a 0.41014502,0.41014502 0 0 0 0.41015625,0.410156 h 9.8417965 a 0.41014502,0.41014502 0 0 0 0.410157,-0.410156 V 9.0996094 A 0.41010401,0.41010401 0 0 0 11.005859,8.6894531 0.41010401,0.41010401 0 0 0 10.595703,9.0996094 V 10.699219 H 1.5742187 V 9.0996094 A 0.41010401,0.41010401 0 0 0 1.1640625,8.6894531 Z"
       id="path17" /><g
       id="g36"><g
         id="path19"
         style="stroke-width:0.978958;stroke-dasharray:none"><path
           style="stroke-width:0.978958;stroke-linecap:round;stroke-linejoin:round;stroke-miterlimit:1.3;stroke-dasharray:none"
           d="M 6.0859375,1.1289062 A 0.50270998,0.50270998 0 0 0 5.5820312,1.6308594 V 7.5800781 A 0.50270998,0.50270998 0 0 0 6.0859375,8.0839844 0.50270998,0.50270998 0 0 0 6.5878906,7.5800781 V 1.6308594 A 0.50270998,0.50270998 0 0 0 6.0859375,1.1289062 Z"
           id="path32" /><g
           id="g31"
           style="stroke-width:0.978958;stroke-dasharray:none"><path
             style="fill:none;stroke:context-stroke;stroke-width:0.978958;stroke-linecap:round;stroke-dasharray:none"
             d="m 3.0854165,4.8304647 3,3 3,-3"
             id="path31" /></g></g><path
         style="stroke-linecap:round;stroke-linejoin:round;stroke-miterlimit:1.3"
         d="M 8.7636719,4.6230469 A 0.48947915,0.48947915 0 0 0 8.4335938,4.7988281 L 6.0859375,7.6484375 3.7363281,4.7988281 a 0.48947915,0.48947915 0 0 0 -0.6875,-0.066406 0.48947915,0.48947915 0 0 0 -0.066406,0.6894531 l 2.7246093,3.3066406 a 0.4895281,0.4895281 0 0 0 0.7558594,0 L 9.1894531,5.421875 A 0.48947915,0.48947915 0 0 0 9.1230469,4.7324219 0.48947915,0.48947915 0 0 0 8.7636719,4.6230469 Z"
         id="path35" /></g></g></svg>
